<svg width="110" height="110" viewBox="0 0 110 110" fill="none" xmlns="http://www.w3.org/2000/svg">
<circle cx="55" cy="55" r="55" fill="#2B64F7"/>
<circle cx="55" cy="55" r="50" fill="#36393F"/>
<path d="M55.728 79.768C52.032 79.768 48.72 79.168 45.792 77.968C42.864 76.768 40.512 74.992 38.736 72.64C37.008 70.288 36.096 67.456 36 64.144H49.104C49.296 66.016 49.944 67.456 51.048 68.464C52.152 69.424 53.592 69.904 55.368 69.904C57.192 69.904 58.632 69.496 59.688 68.68C60.744 67.816 61.272 66.64 61.272 65.152C61.272 63.904 60.84 62.872 59.976 62.056C59.16 61.24 58.128 60.568 56.88 60.04C55.68 59.512 53.952 58.912 51.696 58.24C48.432 57.232 45.768 56.224 43.704 55.216C41.64 54.208 39.864 52.72 38.376 50.752C36.888 48.784 36.144 46.216 36.144 43.048C36.144 38.344 37.848 34.672 41.256 32.032C44.664 29.344 49.104 28 54.576 28C60.144 28 64.632 29.344 68.04 32.032C71.448 34.672 73.272 38.368 73.512 43.12H60.192C60.096 41.488 59.496 40.216 58.392 39.304C57.288 38.344 55.872 37.864 54.144 37.864C52.656 37.864 51.456 38.272 50.544 39.088C49.632 39.856 49.176 40.984 49.176 42.472C49.176 44.104 49.944 45.376 51.48 46.288C53.016 47.2 55.416 48.184 58.68 49.24C61.944 50.344 64.584 51.4 66.6 52.408C68.664 53.416 70.44 54.88 71.928 56.8C73.416 58.72 74.16 61.192 74.16 64.216C74.16 67.096 73.416 69.712 71.928 72.064C70.488 74.416 68.376 76.288 65.592 77.68C62.808 79.072 59.52 79.768 55.728 79.768Z" fill="url(#paint0_linear_302_121)"/>
<defs>
<linearGradient id="paint0_linear_302_121" x1="55.08" y1="28" x2="55.08" y2="79.768" gradientUnits="userSpaceOnUse">
<stop stop-color="#DB1DFB"/>
<stop offset="0.536458" stop-color="#7873ED"/>
<stop offset="1" stop-color="#00DBDE"/>
</linearGradient>
</defs>
</svg>
